<svg width="100" height="100" viewBox="0 0 100 100" fill="none" xmlns="http://www.w3.org/2000/svg">
<circle cx="50" cy="50" r="47" stroke="black" stroke-width="2"/>
<path fill-rule="evenodd" clip-rule="evenodd" d="M56.2157 41.6513L58.0882 42.1631L58.6557 40.3066C60.2392 35.1261 63.8038 30.5734 68.9288 27.8563L79.4861 22.2592L78.1452 35.1819C77.4543 41.8396 73.6528 47.4892 68.266 50.7437L67.2059 51.3841C66.1023 49.3675 63.9609 48 61.5 48C57.9101 48 55 50.9101 55 54.5C55 58.0899 57.9101 61 61.5 61C64.7957 61 67.5185 58.5472 67.9426 55.3675L69.0997 55.6622C70.1432 55.928 71.1169 56.1318 72.0133 56.2978C70.5697 57.2891 69.623 58.9514 69.623 60.8348C69.623 63.8724 72.0855 66.3348 75.123 66.3348C75.6664 66.3348 76.1914 66.256 76.6872 66.1092C76.6414 66.1677 76.595 66.2262 76.5479 66.2848C74.8458 68.4039 72.4283 70.4683 69.6519 72.2859C64.0344 75.9636 57.4182 78.3348 53.123 78.3348C52.8654 78.3348 52.6094 78.3286 52.3551 78.3162L52.269 78.312L52.1828 78.3152C51.8362 78.3283 51.483 78.3349 51.123 78.3349C39.2489 78.3349 29.623 68.709 29.623 56.8349C29.623 56.0045 29.6628 55.2163 29.7394 54.4687L29.8773 53.1233L28.6801 52.4943C23.5312 49.7891 19.5422 44.9848 18.0364 38.9475L15.1445 27.3534L27.3646 31.7649C32.1604 33.4962 35.9514 36.8364 38.3104 40.9865L39.0834 42.3463L40.5894 41.9238C43.2047 41.1902 46.24 40.8348 49.623 40.8348C52.0672 40.8348 54.2663 41.1184 56.2157 41.6513ZM75.5246 56.9977C75.6342 56.9672 75.7457 56.9444 75.858 56.9291C76.3375 57.0111 76.7551 57.092 77.13 57.1847C77.2778 57.2213 77.4112 57.2579 77.5318 57.2946C77.7732 57.4474 77.9868 57.6407 78.1632 57.8662C78.3654 58.1248 78.5148 58.4207 78.6027 58.7371C78.6906 59.0534 78.7153 59.3839 78.6755 59.7098C78.6094 60.2503 77.9867 60.427 77.5087 60.1662L76.2875 59.5L74.8655 58.671C74.3953 58.3969 74.225 57.7726 74.6537 57.4372C74.9123 57.235 75.2082 57.0856 75.5246 56.9977ZM67.992 26.0893C62.3802 29.0644 58.4759 34.0526 56.743 39.722C54.5993 39.1361 52.2205 38.8348 49.623 38.8348C46.1079 38.8348 42.8831 39.2032 40.0492 39.9982C37.4627 35.448 33.303 31.7823 28.0437 29.8837L15.2306 25.2582C13.9787 24.8062 12.7292 25.9343 13.0514 27.2258L16.0958 39.4315C17.7449 46.043 22.1156 51.3046 27.7498 54.2648C27.6659 55.0843 27.623 55.9407 27.623 56.8349C27.623 69.8135 38.1443 80.3349 51.123 80.3349C51.5074 80.3349 51.8857 80.3278 52.2579 80.3138C52.5445 80.3278 52.833 80.3348 53.123 80.3348C62.788 80.3348 81.123 69.9998 81.123 60.3348C81.123 55.7171 79.0686 55.3978 74.8505 54.7421L74.8504 54.7421C73.6305 54.5524 72.2295 54.3347 70.6449 53.9766C70.4817 53.9398 70.3166 53.9014 70.1495 53.8614C69.9665 53.8176 69.7811 53.7719 69.5933 53.7241C69.5062 53.2927 69.4084 52.8698 69.3002 52.4555C69.548 52.3058 69.7928 52.1515 70.0344 51.9926C70.1145 51.9399 70.1943 51.8867 70.2737 51.833C75.6602 48.1923 79.419 42.2837 80.1345 35.3883L81.5405 21.8386C81.6779 20.5147 80.2823 19.5734 79.1063 20.1969L67.992 26.0893ZM63.7211 54.1662C64.1992 54.427 64.8219 54.2503 64.8879 53.7098C64.9278 53.3839 64.903 53.0534 64.8151 52.7371C64.7272 52.4207 64.5779 52.1248 64.3756 51.8662C64.1734 51.6076 63.9221 51.3914 63.6363 51.2299C63.3505 51.0684 63.0356 50.9648 62.7098 50.9249C62.3839 50.8851 62.0533 50.9098 61.737 50.9977C61.4207 51.0856 61.1248 51.235 60.8662 51.4372C60.4375 51.7726 60.6077 52.3969 61.078 52.671L62.5 53.5L63.7211 54.1662ZM49 55.5C49 59.0899 46.0898 62 42.5 62C38.9101 62 36 59.0899 36 55.5C36 51.9101 38.9101 49 42.5 49C46.0898 49 49 51.9101 49 55.5ZM44.5087 54.1662C44.9867 54.427 45.6094 54.2503 45.6755 53.7098C45.7153 53.3839 45.6906 53.0534 45.6027 52.7371C45.5148 52.4207 45.3654 52.1248 45.1632 51.8662C44.9609 51.6076 44.7097 51.3914 44.4238 51.2299C44.138 51.0684 43.8232 50.9648 43.4973 50.9249C43.1714 50.8851 42.8409 50.9098 42.5246 50.9977C42.2082 51.0856 41.9123 51.235 41.6537 51.4372C41.225 51.7726 41.3953 52.3969 41.8655 52.671L43.2875 53.5L44.5087 54.1662Z" fill="black"/>
</svg>
