<?xml version="1.0" standalone="no"?>
<!DOCTYPE svg PUBLIC "-//W3C//DTD SVG 1.1//EN" "http://www.w3.org/Graphics/SVG/1.1/DTD/svg11.dtd">
<svg xmlns="http://www.w3.org/2000/svg" version="1.1">
    <defs>
        <symbol id="icon-codepen" viewBox="0 0 128 128">
            <title>codepen</title>
            <path
                d="M125.571 39.926l-58.5-39c-1.997-1.23-4.128-1.24-6.142 0l-58.5 39C.929 40.926 0 42.712 0 44.497v39c0 1.786.929 3.572 2.429 4.571l58.5 39.006c1.996 1.229 4.128 1.24 6.142 0l58.5-39.006c1.5-.999 2.429-2.785 2.429-4.57v-39c0-1.786-.929-3.572-2.429-4.572zm-56.07-24.144l43.07 28.715-19.214 12.858L69.5 41.425V15.784zm-11.001 0v25.644L34.642 57.354 15.428 44.498 58.5 15.782zm-47.5 39l13.786 9.215L11 73.212v-18.43zm47.5 57.43L15.428 83.497 34.642 70.64 58.5 86.569v25.643zM64 76.997l-19.428-13 19.428-13 19.428 13-19.428 13zm5.5 35.215V86.569L93.357 70.64l19.214 12.857-43.07 28.715zm47.5-39l-13.786-9.215L117 54.783v18.429z">
            </path>
        </symbol>
        <symbol id="icon-github" viewBox="0 0 128 128">
            <title>github</title>
            <g>
                <path fill-rule="evenodd" clip-rule="evenodd"
                    d="M64 5.103c-33.347 0-60.388 27.035-60.388 60.388 0 26.682 17.303 49.317 41.297 57.303 3.017.56 4.125-1.31 4.125-2.905 0-1.44-.056-6.197-.082-11.243-16.8 3.653-20.345-7.125-20.345-7.125-2.747-6.98-6.705-8.836-6.705-8.836-5.48-3.748.413-3.67.413-3.67 6.063.425 9.257 6.223 9.257 6.223 5.386 9.23 14.127 6.562 17.573 5.02.542-3.903 2.107-6.568 3.834-8.076-13.413-1.525-27.514-6.704-27.514-29.843 0-6.593 2.36-11.98 6.223-16.21-.628-1.52-2.695-7.662.584-15.98 0 0 5.07-1.623 16.61 6.19C53.7 35 58.867 34.327 64 34.304c5.13.023 10.3.694 15.127 2.033 11.526-7.813 16.59-6.19 16.59-6.19 3.287 8.317 1.22 14.46.593 15.98 3.872 4.23 6.215 9.617 6.215 16.21 0 23.194-14.127 28.3-27.574 29.796 2.167 1.874 4.097 5.55 4.097 11.183 0 8.08-.07 14.583-.07 16.572 0 1.607 1.088 3.49 4.148 2.897 23.98-7.994 41.263-30.622 41.263-57.294C124.388 32.14 97.35 5.104 64 5.104z">
                </path>
                <path
                    d="M26.484 91.806c-.133.3-.605.39-1.035.185-.44-.196-.685-.605-.543-.906.13-.31.603-.395 1.04-.188.44.197.69.61.537.91zm2.446 2.729c-.287.267-.85.143-1.232-.28-.396-.42-.47-.983-.177-1.254.298-.266.844-.14 1.24.28.394.426.472.984.17 1.255zM31.312 98.012c-.37.258-.976.017-1.35-.52-.37-.538-.37-1.183.01-1.44.373-.258.97-.025 1.35.507.368.545.368 1.19-.01 1.452zm3.261 3.361c-.33.365-1.036.267-1.552-.23-.527-.487-.674-1.18-.343-1.544.336-.366 1.045-.264 1.564.23.527.486.686 1.18.333 1.543zm4.5 1.951c-.147.473-.825.688-1.51.486-.683-.207-1.13-.76-.99-1.238.14-.477.823-.7 1.512-.485.683.206 1.13.756.988 1.237zm4.943.361c.017.498-.563.91-1.28.92-.723.017-1.308-.387-1.315-.877 0-.503.568-.91 1.29-.924.717-.013 1.306.387 1.306.88zm4.598-.782c.086.485-.413.984-1.126 1.117-.7.13-1.35-.172-1.44-.653-.086-.498.422-.997 1.122-1.126.714-.123 1.354.17 1.444.663zm0 0">
                </path>
            </g>
        </symbol>
        <symbol id="icon-linkedin" viewBox="0 0 128 128">
            <title>linkedin</title>
            <path
                d="M116 3H12a8.91 8.91 0 00-9 8.8v104.42a8.91 8.91 0 009 8.78h104a8.93 8.93 0 009-8.81V11.77A8.93 8.93 0 00116 3zM39.17 107H21.06V48.73h18.11zm-9-66.21a10.5 10.5 0 1110.49-10.5 10.5 10.5 0 01-10.54 10.48zM107 107H88.89V78.65c0-6.75-.12-15.44-9.41-15.44s-10.87 7.36-10.87 15V107H50.53V48.73h17.36v8h.24c2.42-4.58 8.32-9.41 17.13-9.41C103.6 47.28 107 59.35 107 75z">
            </path>
        </symbol>
        <symbol id="icon-desktop-tower" fill="#4069ee" viewBox="0 0 256 256">
            <rect width="256" height="256" fill="none"></rect>
            <path d="M112,184H32a16,16,0,0,1-16-16V96A16,16,0,0,1,32,80h80" fill="none" stroke="#4069ee"
                stroke-linecap="round" stroke-linejoin="round" stroke-width="16"></path>
            <line x1="112" y1="216" x2="64" y2="216" fill="none" stroke="#4069ee" stroke-linecap="round"
                stroke-linejoin="round" stroke-width="16"></line>
            <line x1="208" y1="72" x2="176" y2="72" fill="none" stroke="#4069ee" stroke-linecap="round"
                stroke-linejoin="round" stroke-width="16"></line>
            <line x1="208" y1="104" x2="176" y2="104" fill="none" stroke="#4069ee" stroke-linecap="round"
                stroke-linejoin="round" stroke-width="16"></line>
            <rect x="144" y="40" width="96" height="176" rx="8" stroke-width="16" stroke="#4069ee"
                stroke-linecap="round" stroke-linejoin="round" fill="none"></rect>
            <line x1="88" y1="184" x2="88" y2="216" fill="none" stroke="#4069ee" stroke-linecap="round"
                stroke-linejoin="round" stroke-width="16"></line>
            <circle cx="192" cy="180" r="12"></circle>
        </symbol>
        <symbol id="icon-code" fill="#4069ee" viewBox="0 0 256 256">
            <rect width="256" height="256" fill="none"></rect>
            <polyline points="64 88 16 128 64 168" fill="none" stroke="#4069ee" stroke-linecap="round"
                stroke-linejoin="round" stroke-width="16"></polyline>
            <polyline points="192 88 240 128 192 168" fill="none" stroke="#4069ee" stroke-linecap="round"
                stroke-linejoin="round" stroke-width="16"></polyline>
            <line x1="160" y1="40" x2="96" y2="216" fill="none" stroke="#4069ee" stroke-linecap="round"
                stroke-linejoin="round" stroke-width="16"></line>
        </symbol>
        <symbol id="icon-database" fill="#4069ee" viewBox="0 0 256 256">
            <rect width="256" height="256" fill="none"></rect>
            <ellipse cx="128" cy="80" rx="88" ry="48" fill="none" stroke="#4069ee" stroke-linecap="round"
                stroke-linejoin="round" stroke-width="16"></ellipse>
            <path d="M40,80v48c0,26.50967,39.39894,48,88,48s88-21.49033,88-48V80" fill="none" stroke="#4069ee"
                stroke-linecap="round" stroke-linejoin="round" stroke-width="16"></path>
            <path d="M40,128v48c0,26.50967,39.39894,48,88,48s88-21.49033,88-48V128" fill="none" stroke="#4069ee"
                stroke-linecap="round" stroke-linejoin="round" stroke-width="16"></path>
        </symbol>
        <symbol id="icon-browser" fill="#4069ee" viewBox="0 0 256 256">
            <rect width="256" height="256" fill="none"></rect>
            <rect x="32.00781" y="80.00005" width="160" height="128" rx="8" stroke-width="16" stroke="#4069ee"
                stroke-linecap="round" stroke-linejoin="round" fill="none"></rect>
            <path d="M64.00781,80.00005v-24a8,8,0,0,1,8-8h144a8,8,0,0,1,8,8V168a8,8,0,0,1-8,8h-24" fill="none"
                stroke="#4069ee" stroke-linecap="round" stroke-linejoin="round" stroke-width="16"></path>
            <line x1="32" y1="112" x2="192" y2="112" fill="none" stroke="#4069ee" stroke-linecap="round"
                stroke-linejoin="round" stroke-width="16"></line>
        </symbol>
        <symbol id="icon-react" viewBox="0 0 128 128">
            <g>
                <circle cx="64" cy="64" r="11.4"></circle>
                <path
                    d="M107.3 45.2c-2.2-.8-4.5-1.6-6.9-2.3.6-2.4 1.1-4.8 1.5-7.1 2.1-13.2-.2-22.5-6.6-26.1-1.9-1.1-4-1.6-6.4-1.6-7 0-15.9 5.2-24.9 13.9-9-8.7-17.9-13.9-24.9-13.9-2.4 0-4.5.5-6.4 1.6-6.4 3.7-8.7 13-6.6 26.1.4 2.3.9 4.7 1.5 7.1-2.4.7-4.7 1.4-6.9 2.3C8.2 50 1.4 56.6 1.4 64s6.9 14 19.3 18.8c2.2.8 4.5 1.6 6.9 2.3-.6 2.4-1.1 4.8-1.5 7.1-2.1 13.2.2 22.5 6.6 26.1 1.9 1.1 4 1.6 6.4 1.6 7.1 0 16-5.2 24.9-13.9 9 8.7 17.9 13.9 24.9 13.9 2.4 0 4.5-.5 6.4-1.6 6.4-3.7 8.7-13 6.6-26.1-.4-2.3-.9-4.7-1.5-7.1 2.4-.7 4.7-1.4 6.9-2.3 12.5-4.8 19.3-11.4 19.3-18.8s-6.8-14-19.3-18.8zM92.5 14.7c4.1 2.4 5.5 9.8 3.8 20.3-.3 2.1-.8 4.3-1.4 6.6-5.2-1.2-10.7-2-16.5-2.5-3.4-4.8-6.9-9.1-10.4-13 7.4-7.3 14.9-12.3 21-12.3 1.3 0 2.5.3 3.5.9zM81.3 74c-1.8 3.2-3.9 6.4-6.1 9.6-3.7.3-7.4.4-11.2.4-3.9 0-7.6-.1-11.2-.4-2.2-3.2-4.2-6.4-6-9.6-1.9-3.3-3.7-6.7-5.3-10 1.6-3.3 3.4-6.7 5.3-10 1.8-3.2 3.9-6.4 6.1-9.6 3.7-.3 7.4-.4 11.2-.4 3.9 0 7.6.1 11.2.4 2.2 3.2 4.2 6.4 6 9.6 1.9 3.3 3.7 6.7 5.3 10-1.7 3.3-3.4 6.6-5.3 10zm8.3-3.3c1.5 3.5 2.7 6.9 3.8 10.3-3.4.8-7 1.4-10.8 1.9 1.2-1.9 2.5-3.9 3.6-6 1.2-2.1 2.3-4.2 3.4-6.2zM64 97.8c-2.4-2.6-4.7-5.4-6.9-8.3 2.3.1 4.6.2 6.9.2 2.3 0 4.6-.1 6.9-.2-2.2 2.9-4.5 5.7-6.9 8.3zm-18.6-15c-3.8-.5-7.4-1.1-10.8-1.9 1.1-3.3 2.3-6.8 3.8-10.3 1.1 2 2.2 4.1 3.4 6.1 1.2 2.2 2.4 4.1 3.6 6.1zm-7-25.5c-1.5-3.5-2.7-6.9-3.8-10.3 3.4-.8 7-1.4 10.8-1.9-1.2 1.9-2.5 3.9-3.6 6-1.2 2.1-2.3 4.2-3.4 6.2zM64 30.2c2.4 2.6 4.7 5.4 6.9 8.3-2.3-.1-4.6-.2-6.9-.2-2.3 0-4.6.1-6.9.2 2.2-2.9 4.5-5.7 6.9-8.3zm22.2 21l-3.6-6c3.8.5 7.4 1.1 10.8 1.9-1.1 3.3-2.3 6.8-3.8 10.3-1.1-2.1-2.2-4.2-3.4-6.2zM31.7 35c-1.7-10.5-.3-17.9 3.8-20.3 1-.6 2.2-.9 3.5-.9 6 0 13.5 4.9 21 12.3-3.5 3.8-7 8.2-10.4 13-5.8.5-11.3 1.4-16.5 2.5-.6-2.3-1-4.5-1.4-6.6zM7 64c0-4.7 5.7-9.7 15.7-13.4 2-.8 4.2-1.5 6.4-2.1 1.6 5 3.6 10.3 6 15.6-2.4 5.3-4.5 10.5-6 15.5C15.3 75.6 7 69.6 7 64zm28.5 49.3c-4.1-2.4-5.5-9.8-3.8-20.3.3-2.1.8-4.3 1.4-6.6 5.2 1.2 10.7 2 16.5 2.5 3.4 4.8 6.9 9.1 10.4 13-7.4 7.3-14.9 12.3-21 12.3-1.3 0-2.5-.3-3.5-.9zM96.3 93c1.7 10.5.3 17.9-3.8 20.3-1 .6-2.2.9-3.5.9-6 0-13.5-4.9-21-12.3 3.5-3.8 7-8.2 10.4-13 5.8-.5 11.3-1.4 16.5-2.5.6 2.3 1 4.5 1.4 6.6zm9-15.6c-2 .8-4.2 1.5-6.4 2.1-1.6-5-3.6-10.3-6-15.6 2.4-5.3 4.5-10.5 6-15.5 13.8 4 22.1 10 22.1 15.6 0 4.7-5.8 9.7-15.7 13.4z">
                </path>
            </g>
        </symbol>
        <symbol id="icon-nodejs" viewBox="0 0 128 128">
            <path
                d="M112.771 30.334L68.674 4.729c-2.781-1.584-6.402-1.584-9.205 0L14.901 30.334C12.031 31.985 10 35.088 10 38.407v51.142c0 3.319 2.084 6.423 4.954 8.083l11.775 6.688c5.628 2.772 7.617 2.772 10.178 2.772 8.333 0 13.093-5.039 13.093-13.828v-50.49c0-.713-.371-1.774-1.071-1.774h-5.623C42.594 41 41 42.061 41 42.773v50.49c0 3.896-3.524 7.773-10.11 4.48L18.723 90.73c-.424-.23-.723-.693-.723-1.181V38.407c0-.482.555-.966.982-1.213l44.424-25.561c.415-.235 1.025-.235 1.439 0l43.882 25.555c.42.253.272.722.272 1.219v51.142c0 .488.183.963-.232 1.198l-44.086 25.576c-.378.227-.847.227-1.261 0l-11.307-6.749c-.341-.198-.746-.269-1.073-.086-3.146 1.783-3.726 2.02-6.677 3.043-.726.253-1.797.692.41 1.929l14.798 8.754a9.294 9.294 0 004.647 1.246c1.642 0 3.25-.426 4.667-1.246l43.885-25.582c2.87-1.672 4.23-4.764 4.23-8.083V38.407c0-3.319-1.36-6.414-4.229-8.073zM77.91 81.445c-11.726 0-14.309-3.235-15.17-9.066-.1-.628-.633-1.379-1.272-1.379h-5.731c-.709 0-1.279.86-1.279 1.566 0 7.466 4.059 16.512 23.453 16.512 14.039 0 22.088-5.455 22.088-15.109 0-9.572-6.467-12.084-20.082-13.886-13.762-1.819-15.16-2.738-15.16-5.962 0-2.658 1.184-6.203 11.374-6.203 9.105 0 12.461 1.954 13.842 8.091.118.577.645.991 1.24.991h5.754c.354 0 .692-.143.94-.396.24-.272.367-.613.335-.979-.891-10.568-7.912-15.493-22.112-15.493-12.631 0-20.166 5.334-20.166 14.275 0 9.698 7.497 12.378 19.622 13.577 14.505 1.422 15.633 3.542 15.633 6.395 0 4.955-3.978 7.066-13.309 7.066z">
            </path>
        </symbol>
        <symbol id="icon-mongo" viewBox="0 0 128 128">
            <path fill-rule="evenodd" clip-rule="evenodd"
                d="M90.491 57.282c-.37-4.79-1.496-9.409-3.062-13.934-3.244-10.104-8.45-19.046-15.783-26.74-1.854-1.946-3.916-3.729-5.209-6.151-.818-1.532-1.597-3.085-2.394-4.629l-.505-1.273c-.085.292-.139.396-.142.501-.065 2.517-1.491 4.224-3.267 5.817-1.997 1.793-3.856 3.739-5.775 5.618l-5.901 7.763c-1.592 2.925-3.182 5.85-4.772 8.775l-3.19 8.617-.096.134c-1.756 5.768-2.622 11.698-3.048 17.688-.16 2.251.022 4.535.149 6.798.181 3.235.743 6.415 1.586 9.545 3.062 11.372 9.276 20.805 17.771 28.819 1.579 1.489 3.199 2.843 4.847 4.26.282-.965.507-1.93.763-2.895.256-.961.515-1.917.688-2.881-.174.964-.369 1.92-.562 2.881l-.826 2.895.738 2.501.684 3.884.326 4.053c-.003.823-.036 1.648.014 2.47.012.21.288.404.442.606l1.376.483 1.434.558-.246-3.603-.011-3.548.495-5.405.359-1.177 1.027-1.82c1.268-1.02 2.629-1.946 3.784-3.081 2.09-2.054 4.175-4.134 6.045-6.383a47.846 47.846 0 006.191-9.516c1.122-2.284 2.178-4.614 3.052-7.001.77-2.104 1.247-4.315 1.854-6.479.054-.156.126-.309.16-.468 1.254-5.841 1.465-11.741 1.004-17.682zm-23.599 49.375l-.805-1.763.805 1.763 1.183 1.01-1.183-1.01z">
            </path>
        </symbol>
        <symbol id="icon-express" viewBox="0 0 128 128">
            <path
                d="M40.53 77.82V50.74H42V55a5.57 5.57 0 00.48-.6 7.28 7.28 0 016.64-4.12c3.35-.1 6.07 1.14 7.67 4.12a13.24 13.24 0 01.32 12.14c-1.49 3.34-5.17 5-9.11 4.39a7.37 7.37 0 01-5.88-3.88v10.77zM42 60.32c.13 1.32.18 2.26.33 3.18.58 3.62 2.72 5.77 6.08 6.16A6.91 6.91 0 0056 65.27a11.77 11.77 0 00-.26-9.68 6.77 6.77 0 00-7.13-3.94 6.59 6.59 0 00-5.89 4.87 33.4 33.4 0 00-.72 3.8zM88.41 64a7.92 7.92 0 01-7.74 7c-6.16.31-9.05-3.78-9.51-8.5a13.62 13.62 0 011.2-7.5 8.37 8.37 0 018.71-4.67 8 8 0 017.1 6.09 41.09 41.09 0 01.69 4.5H72.67c-.3 4.28 2 7.72 5.26 8.55 4.06 1 7.53-.76 8.79-4.62.28-.99.79-1.13 1.69-.85zm-15.74-4.45h14.47c-.09-4.56-2.93-7.86-6.78-7.91-4.36-.07-7.5 3.11-7.69 7.91zM91.39 64.1h1.42a5.69 5.69 0 003.34 4.9 8.73 8.73 0 007.58-.2 3.41 3.41 0 002-3.35 3.09 3.09 0 00-2.08-3.09c-1.56-.58-3.22-.9-4.81-1.41A35.25 35.25 0 0194 59.18c-2.56-1.25-2.72-6.12.18-7.66a10.21 10.21 0 019.76-.15 5.14 5.14 0 012.6 5.24h-1.22c0-.06-.11-.11-.11-.17-.15-3.89-3.41-5.09-6.91-4.75a9.17 9.17 0 00-3 .91 3 3 0 00-1.74 3 3 3 0 002 2.82c1.54.56 3.15.92 4.73 1.36 1.27.35 2.59.58 3.82 1a4.51 4.51 0 013.1 4.07 4.81 4.81 0 01-2.59 5c-3.34 1.89-8.84 1.39-11.29-1a6.67 6.67 0 01-1.94-4.75zM125.21 56.61h-1.33c0-.18-.07-.34-.09-.49a4.35 4.35 0 00-3.54-4.18 8.73 8.73 0 00-5.61.27 3.41 3.41 0 00-2.47 3.25 3.14 3.14 0 002.4 3.16c2 .62 4.05 1 6.08 1.56a17 17 0 011.94.59 5 5 0 01.27 9.31 11.13 11.13 0 01-9 .09 6.24 6.24 0 01-3.76-6.06h1.3a7.29 7.29 0 0011.1 4.64 3.57 3.57 0 001.92-3.34 3.09 3.09 0 00-2.11-3.07c-1.56-.58-3.22-.89-4.81-1.4a35.43 35.43 0 01-4.87-1.75c-2.5-1.23-2.7-6.06.15-7.6a10.07 10.07 0 019.92-.11 5.23 5.23 0 012.51 5.13zM38.1 70.51a2.29 2.29 0 01-2.84-1.08c-1.63-2.44-3.43-4.77-5.16-7.15l-.75-1c-2.06 2.76-4.12 5.41-6 8.16a2.2 2.2 0 01-2.7 1.06l7.73-10.37-7.19-9.37a2.39 2.39 0 012.85 1c1.67 2.44 3.52 4.77 5.36 7.24 1.85-2.45 3.68-4.79 5.39-7.21a2.15 2.15 0 012.68-1l-2.79 3.7c-1.25 1.65-2.48 3.31-3.78 4.92a1 1 0 000 1.49c2.39 3.17 4.76 6.35 7.2 9.61zM70.92 50.66v1.4a7.25 7.25 0 00-7.72 7.49v11h-1.43V50.74h1.4v4.06c1.73-2.96 4.4-4.06 7.75-4.14zM2.13 60c.21-1 .34-2.09.63-3.11 1.73-6.15 8.78-8.71 13.63-4.9 2.84 2.23 3.55 5.39 3.41 8.95h-16c-.26 6.36 4.33 10.2 10.2 8.24a6.09 6.09 0 003.87-4.31c.31-1 .81-1.17 1.76-.88a8.12 8.12 0 01-3.88 5.93 9.4 9.4 0 01-10.95-1.4 9.85 9.85 0 01-2.46-5.78c0-.34-.13-.68-.2-1q-.01-.89-.01-1.74zm1.69-.43h14.47c-.09-4.61-3-7.88-6.88-7.91-4.32-.06-7.41 3.14-7.6 7.89z">
            </path>
        </symbol>
        <symbol id="icon-ex" viewBox="0 0 128 128">
            <path
                d="M126.67 98.44c-4.56 1.16-7.38.05-9.91-3.75-5.68-8.51-11.95-16.63-18-24.9-.78-1.07-1.59-2.12-2.6-3.45C89 76 81.85 85.2 75.14 94.77c-2.4 3.42-4.92 4.91-9.4 3.7l26.92-36.13L67.6 29.71c4.31-.84 7.29-.41 9.93 3.45 5.83 8.52 12.26 16.63 18.67 25.21 6.45-8.55 12.8-16.67 18.8-25.11 2.41-3.42 5-4.72 9.33-3.46-3.28 4.35-6.49 8.63-9.72 12.88-4.36 5.73-8.64 11.53-13.16 17.14-1.61 2-1.35 3.3.09 5.19C109.9 76 118.16 87.1 126.67 98.44zM1.33 61.74c.72-3.61 1.2-7.29 2.2-10.83 6-21.43 30.6-30.34 47.5-17.06C60.93 41.64 63.39 52.62 62.9 65H7.1c-.84 22.21 15.15 35.62 35.53 28.78 7.15-2.4 11.36-8 13.47-15 1.07-3.51 2.84-4.06 6.14-3.06-1.69 8.76-5.52 16.08-13.52 20.66-12 6.86-29.13 4.64-38.14-4.89C5.26 85.89 3 78.92 2 71.39c-.15-1.2-.46-2.38-.7-3.57q.03-3.04.03-6.08zm5.87-1.49h50.43c-.33-16.06-10.33-27.47-24-27.57-15-.12-25.78 11.02-26.43 27.57z">
            </path>
        </symbol>
        <symbol id="icon-typescript" viewBox="0 0 128 128">
            <path
                d="M2 63.91v62.5h125v-125H2zm100.73-5a15.56 15.56 0 017.82 4.5 20.58 20.58 0 013 4c0 .16-5.4 3.81-8.69 5.85-.12.08-.6-.44-1.13-1.23a7.09 7.09 0 00-5.87-3.53c-3.79-.26-6.23 1.73-6.21 5a4.58 4.58 0 00.54 2.34c.83 1.73 2.38 2.76 7.24 4.86 8.95 3.85 12.78 6.39 15.16 10 2.66 4 3.25 10.46 1.45 15.24-2 5.2-6.9 8.73-13.83 9.9a38.32 38.32 0 01-9.52-.1A23 23 0 0180 109.19c-1.15-1.27-3.39-4.58-3.25-4.82a9.34 9.34 0 011.15-.73l4.6-2.64 3.59-2.08.75 1.11a16.78 16.78 0 004.74 4.54c4 2.1 9.46 1.81 12.16-.62a5.43 5.43 0 00.69-6.92c-1-1.39-3-2.56-8.59-5-6.45-2.78-9.23-4.5-11.77-7.24a16.48 16.48 0 01-3.43-6.25 25 25 0 01-.22-8c1.33-6.23 6-10.58 12.82-11.87a31.66 31.66 0 019.49.26zm-29.34 5.24v5.12H57.16v46.23H45.65V69.26H29.38v-5a49.19 49.19 0 01.14-5.16c.06-.08 10-.12 22-.1h21.81z">
            </path>
        </symbol>
        <symbol id="icon-javascript" viewBox="0 0 128 128">
            <path
                d="M2 1v125h125V1H2zm66.119 106.513c-1.845 3.749-5.367 6.212-9.448 7.401-6.271 1.44-12.269.619-16.731-2.059-2.986-1.832-5.318-4.652-6.901-7.901l9.52-5.83c.083.035.333.487.667 1.071 1.214 2.034 2.261 3.474 4.319 4.485 2.022.69 6.461 1.131 8.175-2.427 1.047-1.81.714-7.628.714-14.065C58.433 78.073 58.48 68 58.48 58h11.709c0 11 .06 21.418 0 32.152.025 6.58.596 12.446-2.07 17.361zm48.574-3.308c-4.07 13.922-26.762 14.374-35.83 5.176-1.916-2.165-3.117-3.296-4.26-5.795 4.819-2.772 4.819-2.772 9.508-5.485 2.547 3.915 4.902 6.068 9.139 6.949 5.748.702 11.531-1.273 10.234-7.378-1.333-4.986-11.77-6.199-18.873-11.531-7.211-4.843-8.901-16.611-2.975-23.335 1.975-2.487 5.343-4.343 8.877-5.235l3.688-.477c7.081-.143 11.507 1.727 14.756 5.355.904.916 1.642 1.904 3.022 4.045-3.772 2.404-3.76 2.381-9.163 5.879-1.154-2.486-3.069-4.046-5.093-4.724-3.142-.952-7.104.083-7.926 3.403-.285 1.023-.226 1.975.227 3.665 1.273 2.903 5.545 4.165 9.377 5.926 11.031 4.474 14.756 9.271 15.672 14.981.882 4.916-.213 8.105-.38 8.581z">
            </path>
        </symbol>
        <symbol id="icon-redux" viewBox="0 0 128 128">
            <path fill="none" d="M0 0h128v128H0z"></path>
            <path
                d="M88.69 88.11c-9 18.4-24.76 30.78-45.61 34.85a39.73 39.73 0 01-9.77 1.14c-12 0-23-5-28.34-13.19C-2.2 100-4.64 76.87 19 59.76c.48 2.61 1.46 6.19 2.11 8.31A38.24 38.24 0 0010 81.1c-4.4 8.64-3.91 17.27 1.3 25.25 3.6 5.38 9.3 8.65 16.63 9.65a44 44 0 0026.55-5c12.71-6.68 21.18-14.66 26.72-25.57a9.32 9.32 0 01-2.61-6A9.12 9.12 0 0187.37 70h.34a9.15 9.15 0 011 18.25zm28.67-20.2c12.21 13.84 12.54 30.13 7.82 39.58-4.4 8.63-16 17.27-31.6 17.27a50.48 50.48 0 01-21-5.05c2.29-1.63 5.54-4.24 7.33-5.87a41.54 41.54 0 0016 3.42c10.1 0 17.75-4.72 22.31-13.35 2.93-5.7 3.1-12.38.33-19.22a43.61 43.61 0 00-17.27-20.85 62 62 0 00-34.74-10.59h-2.93a9.21 9.21 0 01-8 5.54h-.31a9.13 9.13 0 01-.3-18.25h.33a9 9 0 018 4.89h2.61c20.8 0 39.06 7.98 51.42 22.48zm-82.75 23a7.31 7.31 0 011.14-4.73c-9.12-15.8-14-35.83-6.51-56.68C34.61 13.83 48.13 3.24 62.79 3.24c15.64 0 31.93 13.69 33.88 40.07-2.44-.81-6-2-8.14-2.44-.53-8.63-7.82-30.13-25.09-29.81-6.19.17-15.31 3.1-20 9.12a43.69 43.69 0 00-9.64 25.25 59.61 59.61 0 008.47 36.16 2.75 2.75 0 011.14-.16h.32a9.12 9.12 0 01.33 18.24h-.33a9.16 9.16 0 01-9.12-8.79z">
            </path>
        </symbol>
        <symbol id="icon-css" viewBox="0 0 128 128">
            <path
                d="M8.76 1l10.055 112.883 45.118 12.58 45.244-12.626L119.24 1H8.76zm89.591 25.862l-3.347 37.605.01.203-.014.467v-.004l-2.378 26.294-.262 2.336L64 101.607v.001l-.022.019-28.311-7.888L33.75 72h13.883l.985 11.054 15.386 4.17-.004.008v-.002l15.443-4.229L81.075 65H48.792l-.277-3.043-.631-7.129L47.553 51h34.749l1.264-14H30.64l-.277-3.041-.63-7.131L29.401 23h69.281l-.331 3.862z">
            </path>
        </symbol>
        <symbol id="icon-sass" viewBox="0 0 128 128">
            <path fill-rule="evenodd" clip-rule="evenodd"
                d="M1.219 56.156c0 .703.207 1.167.323 1.618.756 2.933 2.381 5.45 4.309 7.746 2.746 3.272 6.109 5.906 9.554 8.383 2.988 2.148 6.037 4.248 9.037 6.38.515.366 1.002.787 1.561 1.236-.481.26-.881.489-1.297.7-3.959 2.008-7.768 4.259-11.279 6.986-2.116 1.644-4.162 3.391-5.607 5.674-2.325 3.672-3.148 7.584-1.415 11.761.506 1.22 1.278 2.274 2.367 3.053.353.252.749.502 1.162.6 1.058.249 2.136.412 3.207.609l3.033-.002c3.354-.299 6.407-1.448 9.166-3.352 4.312-2.976 7.217-6.966 8.466-12.087.908-3.722.945-7.448-.125-11.153a11.696 11.696 0 00-.354-1.014c-.13-.333-.283-.657-.463-1.072l6.876-3.954.103.088c-.125.409-.258.817-.371 1.23-.817 2.984-1.36 6.02-1.165 9.117.208 3.3 1.129 6.389 3.061 9.146 1.562 2.23 5.284 2.313 6.944.075.589-.795 1.16-1.626 1.589-2.513 1.121-2.315 2.159-4.671 3.23-7.011l.187-.428c-.077 1.108-.167 2.081-.208 3.055-.064 1.521.025 3.033.545 4.48.445 1.238 1.202 2.163 2.62 2.326.97.111 1.743-.333 2.456-.896a10.384 10.384 0 002.691-3.199c1.901-3.491 3.853-6.961 5.576-10.54 1.864-3.871 3.494-7.855 5.225-11.792l.286-.698c.409 1.607.694 3.181 1.219 4.671.61 1.729 1.365 3.417 2.187 5.058.389.775.344 1.278-.195 1.928-2.256 2.72-4.473 5.473-6.692 8.223-.491.607-.98 1.225-1.389 1.888a3.701 3.701 0 00-.48 1.364 1.737 1.737 0 001.383 1.971 9.661 9.661 0 002.708.193c3.097-.228 5.909-1.315 8.395-3.157 3.221-2.386 4.255-5.642 3.475-9.501-.211-1.047-.584-2.065-.947-3.074-.163-.455-.174-.774.123-1.198 2.575-3.677 4.775-7.578 6.821-11.569.081-.157.164-.314.306-.482.663 3.45 1.661 6.775 3.449 9.792-.912.879-1.815 1.676-2.632 2.554-1.799 1.934-3.359 4.034-4.173 6.595-.35 1.104-.619 2.226-.463 3.405.242 1.831 1.742 3.021 3.543 2.604 3.854-.892 7.181-2.708 9.612-5.925 1.636-2.166 1.785-4.582 1.1-7.113-.188-.688-.411-1.365-.651-2.154.951-.295 1.878-.649 2.837-.868 4.979-1.136 9.904-.938 14.702.86 2.801 1.05 5.064 2.807 6.406 5.571 1.639 3.379.733 6.585-2.452 8.721-.297.199-.637.356-.883.605a.869.869 0 00-.205.67c.021.123.346.277.533.275 1.047-.008 1.896-.557 2.711-1.121 2.042-1.413 3.532-3.314 3.853-5.817l.063-.188-.077-1.63c-.031-.094.023-.187.016-.258-.434-3.645-2.381-6.472-5.213-8.688-3.28-2.565-7.153-3.621-11.249-3.788a25.401 25.401 0 00-9.765 1.503c-.897.325-1.786.71-2.688 1.073-.121-.219-.251-.429-.358-.646-.926-1.896-2.048-3.708-2.296-5.882-.176-1.544-.392-3.086-.025-4.613.353-1.469.813-2.913 1.246-4.362.223-.746.066-1.164-.646-1.5a2.854 2.854 0 00-.786-.258c-1.75-.254-3.476-.109-5.171.384-.6.175-1.036.511-1.169 1.175-.076.381-.231.746-.339 1.122-.443 1.563-.757 3.156-1.473 4.645-1.794 3.735-3.842 7.329-5.938 10.897-.227.385-.466.763-.752 1.23-.736-1.54-1.521-2.922-1.759-4.542-.269-1.832-.481-3.661-.025-5.479.339-1.356.782-2.687 1.19-4.025.193-.636.104-.97-.472-1.305-.291-.169-.62-.319-.948-.368a11.643 11.643 0 00-5.354.438c-.543.176-.828.527-.994 1.087-.488 1.652-.904 3.344-1.589 4.915-2.774 6.36-5.628 12.687-8.479 19.013-.595 1.321-1.292 2.596-1.963 3.882-.17.326-.418.613-.63.919-.17-.201-.236-.339-.235-.477.005-.813-.092-1.65.063-2.436a172.189 172.189 0 011.578-7.099c.47-1.946 1.017-3.874 1.538-5.807.175-.647.178-1.252-.287-1.796-.781-.911-2.413-1.111-3.381-.409l-.428.242.083-.69c.204-1.479.245-2.953-.161-4.41-.506-1.816-1.802-2.861-3.686-2.803-.878.027-1.8.177-2.613.497-3.419 1.34-6.048 3.713-8.286 6.568a2.592 2.592 0 01-.757.654c-2.893 1.604-5.795 3.188-8.696 4.778l-3.229 1.769c-.866-.826-1.653-1.683-2.546-2.41-2.727-2.224-5.498-4.393-8.244-6.592-2.434-1.949-4.792-3.979-6.596-6.56-1.342-1.92-2.207-4.021-2.29-6.395-.105-3.025.753-5.789 2.293-8.362 1.97-3.292 4.657-5.934 7.611-8.327 3.125-2.53 6.505-4.678 10.008-6.639 4.901-2.743 9.942-5.171 15.347-6.774 5.542-1.644 11.165-2.585 16.965-1.929 2.28.258 4.494.78 6.527 1.895 1.557.853 2.834 1.97 3.428 3.716.586 1.718.568 3.459.162 5.204-.825 3.534-2.76 6.447-5.195 9.05-3.994 4.267-8.866 7.172-14.351 9.091a39.478 39.478 0 01-9.765 2.083c-2.729.229-5.401-.013-7.985-.962-1.711-.629-3.201-1.591-4.399-2.987-.214-.25-.488-.521-.887-.287-.391.23-.46.602-.329.979.219.626.421 1.278.762 1.838.857 1.405 2.107 2.424 3.483 3.298 2.643 1.681 5.597 2.246 8.66 2.377 4.648.201 9.183-.493 13.654-1.74 6.383-1.78 11.933-4.924 16.384-9.884 3.706-4.13 6.353-8.791 6.92-14.419.277-2.747-.018-5.438-1.304-7.944-1.395-2.715-3.613-4.734-6.265-6.125C68.756 18.179 64.588 17 60.286 17h-4.31c-5.21 0-10.247 1.493-15.143 3.274-3.706 1.349-7.34 2.941-10.868 4.703-7.683 3.839-14.838 8.468-20.715 14.833-2.928 3.171-5.407 6.67-6.833 10.79a40.494 40.494 0 00-1.111 3.746m27.839 36.013c-.333 4.459-2.354 8.074-5.657 11.002-1.858 1.646-3.989 2.818-6.471 3.23-.9.149-1.821.185-2.694-.188-1.245-.532-1.524-1.637-1.548-2.814-.037-1.876.62-3.572 1.521-5.186 1.176-2.104 2.9-3.708 4.741-5.206 2.9-2.361 6.046-4.359 9.268-6.245l.243-.1c.498 1.84.735 3.657.597 5.507zM54.303 70.98c-.235 1.424-.529 2.849-.945 4.229-1.438 4.777-3.285 9.406-5.282 13.973-.369.845-.906 1.616-1.373 2.417a1.689 1.689 0 01-.283.334c-.578.571-1.126.541-1.418-.206-.34-.868-.549-1.797-.729-2.716-.121-.617-.092-1.265-.13-1.897.039-4.494 1.41-8.578 3.736-12.38.959-1.568 2.003-3.062 3.598-4.054a6.27 6.27 0 011.595-.706c.85-.239 1.372.154 1.231 1.006zm17.164 21.868l6.169-7.203c.257 2.675-4.29 8.015-6.169 7.203zm19.703-4.847c-.436.25-.911.43-1.358.661-.409.212-.544-.002-.556-.354a2.385 2.385 0 01.093-.721c.833-2.938 2.366-5.446 4.647-7.486l.16-.082c1.085 3.035-.169 6.368-2.986 7.982z">
            </path>
        </symbol>
        <symbol id="icon-materialui" viewBox="0 0 128 128">
            <path
                d="M.2 68.6V13.4L48 41v18.4L16.1 41v36.8L.2 68.6zM48 41l47.9-27.6v55.3L64 87l-16-9.2 32-18.4V41L48 59.4V41z">
            </path>
            <path
                d="M48 77.8v18.4l32 18.4V96.2L48 77.8zM80 114.6L127.8 87V50.2l-16 9.2v18.4L80 96.2v18.4zM111.9 41V22.6l16-9.2v18.4l-16 9.2z">
            </path>
        </symbol>
        <symbol id="icon-bootstrap" viewBox="0 0 128 128">
            <path
                d="M75.701 65.603c-2.334-.768-5.694-.603-10.08-.603H48v23h18.844c2.944 0 5.012-.315 6.203-.535 2.099-.376 3.854-1.104 5.264-1.982 1.409-.876 2.568-2.205 3.478-3.881.908-1.676 1.363-3.637 1.363-5.83 0-2.568-.658-4.54-1.975-6.436-1.316-1.896-3.141-2.965-5.476-3.733zm-2.419-10.516c2.317-.688 4.064-1.89 5.239-3.487 1.176-1.598 1.763-3.631 1.763-6.044 0-2.286-.549-4.314-1.646-6.054s-2.662-2.413-4.699-3.056c-2.037-.641-5.53-.446-10.48-.446H48v20h16.587c4.042 0 6.939-.38 8.695-.913zM126 18.625C126 9.443 118.557 2 109.375 2h-91.75C8.443 2 1 9.443 1 18.625v91.75C1 119.557 8.443 127 17.625 127h91.75c9.182 0 16.625-7.443 16.625-16.625v-91.75zm-35.447 66.12c-1.362 2.773-3.047 4.911-5.052 6.415-2.006 1.504-4.521 2.78-7.544 3.548C74.935 95.477 71.229 96 66.844 96H39V27h27.42c5.264 0 9.485.609 12.665 2.002 3.181 1.395 5.671 3.497 7.474 6.395 1.801 2.898 2.702 5.907 2.702 9.071 0 2.945-.8 5.708-2.397 8.308-1.598 2.602-4.011 4.694-7.237 6.292 4.166 1.222 7.37 3.304 9.61 6.248 2.24 2.945 3.36 6.422 3.36 10.432 0 3.227-.681 6.225-2.044 8.997z">
            </path>
        </symbol>
        <symbol id="icon-csharp" viewBox="0 0 128 128">
            <path
                d="M117.5 33.5l.3-.2c-.6-1.1-1.5-2.1-2.4-2.6L67.1 2.9c-.8-.5-1.9-.7-3.1-.7-1.2 0-2.3.3-3.1.7l-48 27.9c-1.7 1-2.9 3.5-2.9 5.4v55.7c0 1.1.2 2.3.9 3.4l-.2.1c.5.8 1.2 1.5 1.9 1.9l48.2 27.9c.8.5 1.9.7 3.1.7 1.2 0 2.3-.3 3.1-.7l48-27.9c1.7-1 2.9-3.5 2.9-5.4V36.1c.1-.8 0-1.7-.4-2.6zm-53.5 70c-21.8 0-39.5-17.7-39.5-39.5S42.2 24.5 64 24.5c14.7 0 27.5 8.1 34.3 20l-13 7.5C81.1 44.5 73.1 39.5 64 39.5c-13.5 0-24.5 11-24.5 24.5s11 24.5 24.5 24.5c9.1 0 17.1-5 21.3-12.4l12.9 7.6c-6.8 11.8-19.6 19.8-34.2 19.8zM115 62h-3.2l-.9 4h4.1v5h-5l-1.2 6h-4.9l1.2-6h-3.8l-1.2 6h-4.8l1.2-6H94v-5h3.5l.9-4H94v-5h5.3l1.2-6h4.9l-1.2 6h3.8l1.2-6h4.8l-1.2 6h2.2v5zm-12.7 4h3.8l.9-4h-3.8z">
            </path>
        </symbol>
        <symbol id="icon-caret-forward" class="ionicon" viewBox="0 0 512 512">
            <title>Caret Forward</title>
            <path
                d="M190.06 414l163.12-139.78a24 24 0 000-36.44L190.06 98c-15.57-13.34-39.62-2.28-39.62 18.22v279.6c0 20.5 24.05 31.56 39.62 18.18z" />
        </symbol>
    </defs>
</svg>